<svg id="icons" xmlns="http://www.w3.org/2000/svg" xmlns:xlink="http://www.w3.org/1999/xlink" viewBox="0 0 48 48"><defs><linearGradient id="New_Gradient_Swatch_6" x1="16" y1="30" x2="16" y2="2" gradientUnits="userSpaceOnUse"><stop offset="0" stop-color="#ffc0a6"/><stop offset="1" stop-color="#ffa6ca"/></linearGradient><linearGradient id="New_Gradient_Swatch_5" x1="24" y1="48" x2="24" gradientUnits="userSpaceOnUse"><stop offset="0" stop-color="#fd7d47"/><stop offset="1" stop-color="#ff5099"/></linearGradient></defs><title>user-member-people-magnifier-search-finder</title><g id="user-member-people-magnifier-search-finder"><circle cx="16" cy="16" r="14" fill="url(#New_Gradient_Swatch_6)"/><path d="M47.41,40,36,28.59a2,2,0,0,0-2.83,0l-.87.87L28.62,25.8a16.05,16.05,0,1,0-2.82,2.82l3.66,3.67-.87.87a2,2,0,0,0,0,2.83L40,47.41a2,2,0,0,0,1.42.59,2,2,0,0,0,1.41-.59l4.57-4.57A2,2,0,0,0,47.41,40ZM16,28A12,12,0,1,1,28,16,12,12,0,0,1,16,28ZM41.43,43.17l-8.6-8.6,1.74-1.74,8.6,8.6ZM12,11a4,4,0,1,1,4,4A4,4,0,0,1,12,11Zm10,9v3H10V20a4,4,0,0,1,4-4h4A4,4,0,0,1,22,20Z" fill="url(#New_Gradient_Swatch_5)"/></g></svg>